<svg xmlns="http://www.w3.org/2000/svg" width="1024" height="1024" viewBox="0 0 256 256" preserveAspectRatio="xMidYMid meet">
  <rect width="256" height="256" fill="#0B0B0C"/>
  <rect x="48.5" y="48.5" width="159" height="159" fill="none" stroke="#FF6B01" stroke-width="11"/>
  <g fill="#FF6B01">
    <rect x="72.000" y="72.000" width="18" height="18"/>
    <rect x="103.333" y="72.000" width="18" height="18"/>
    <rect x="134.667" y="72.000" width="18" height="18"/>
    <rect x="166.000" y="72.000" width="18" height="18"/>
    <rect x="72.000" y="103.333" width="18" height="18"/>
    <rect x="103.333" y="103.333" width="18" height="18"/>
    <rect x="134.667" y="103.333" width="18" height="18"/>
    <rect x="166.000" y="103.333" width="18" height="18"/>
    <rect x="72.000" y="134.667" width="18" height="18"/>
    <rect x="103.333" y="134.667" width="18" height="18"/>
    <rect x="134.667" y="134.667" width="18" height="18"/>
    <rect x="166.000" y="134.667" width="18" height="18"/>
    <rect x="72.000" y="166.000" width="18" height="18"/>
    <rect x="103.333" y="166.000" width="18" height="18"/>
    <rect x="134.667" y="166.000" width="18" height="18"/>
    <rect x="166.000" y="166.000" width="18" height="18"/>
  </g>
</svg>
